<svg width="32" height="32" viewBox="0 0 32 32" fill="none" xmlns="http://www.w3.org/2000/svg">
  <rect width="32" height="32" rx="6" fill="#1E40AF"/>
  <path d="M16 8C16 7.44772 16.4477 7 17 7H19C19.5523 7 20 7.44772 20 8V24C20 24.5523 19.5523 25 19 25H17C16.4477 25 16 24.5523 16 24V8Z" fill="white"/>
  <path d="M12 8C12 7.44772 12.4477 7 13 7C13.5523 7 14 7.44772 14 8V16C14 16.5523 13.5523 17 13 17C12.4477 17 12 16.5523 12 16V8Z" fill="#93C5FD"/>
  <path d="M22 12C22 11.4477 22.4477 11 23 11C23.5523 11 24 11.4477 24 12V20C24 20.5523 23.5523 21 23 21C22.4477 21 22 20.5523 22 20V12Z" fill="#93C5FD"/>
  <path d="M8 11C8 10.4477 8.44772 10 9 10C9.55228 10 10 10.4477 10 11V18C10 18.5523 9.55228 19 9 19C8.44772 19 8 18.5523 8 18V11Z" fill="#DBEAFE"/>
</svg>